# xmcd
#
# Track frame offsets:
#	150
#	13621
#	24183
#	37634
#	46415
#	59665
#	73279
#	85171
#	99798
#	115841
#	128289
#	140908
#	153840
#	165904
#	177075
#	192311
#
# Disc length: 2696 seconds
#
# Revision: 0
# Processed by: cddbd v1.5.2PL0 Copyright (c) Steve Scherf et al.
# Submitted via: EasyCDDAExtractor 15.3.0.1
#
DISCID=c00a8610
DTITLE=Andrea Jürgens - Singt Die Schönsten Deutschen Volkslieder LP 1981
DYEAR=1981
DGENRE=Saksa Kansanmusiikki
TTITLE0=Muß I Denn Zum Städtele Hinaus-Puusydän
TTITLE1=Laß Doch Der Jugend Ihren Lauf
TTITLE2=Sah Ein Knab Ein Röslein Steh'n
TTITLE3=Es Klappert Die Mühle Am Rauschenden Bach
TTITLE4=Wer Recht In Freuden Wandern Will
TTITLE5=Jetzt Kommen Die Lustigen Tage
TTITLE6=Kein Schöner Land In Dieser Zeit
TTITLE7=Hoch Auf Dem Gelben Wagen
TTITLE8=Am Brunnen Vor Dem Tore
TTITLE9=Wem Gott Will Rechte Gunst Erweisen
TTITLE10=Nun Ade, Du Mein Lieb Heimatland
TTITLE11=Mein Vater War Ein Wandersmann
TTITLE12=Lustig Ist Das Zigeunerleben
TTITLE13=Im Schönsten Wiesengrunde
TTITLE14=Das Wandern Ist Des Müllers Lust
TTITLE15=Alle Vögel Sind Schon Da
EXTD=
EXTT0=
EXTT1=
EXTT2=
EXTT3=
EXTT4=
EXTT5=
EXTT6=
EXTT7=
EXTT8=
EXTT9=
EXTT10=
EXTT11=
EXTT12=
EXTT13=
EXTT14=
EXTT15=
PLAYORDER=
